HIERARCHY
ROOT Hips
{
  OFFSET -20.5658 98.029 -61.796
  CHANNELS 6 Xposition Yposition Zposition Zrotation Xrotation Yrotation
  JOINT RightUpLeg
  {
    OFFSET -8.9458 -8.66707 0.101652
    CHANNELS 3 Zrotation Xrotation Yrotation
    JOINT RightLeg
    {
      OFFSET 0 -44.4227 1.3727
      CHANNELS 3 Zrotation Xrotation Yrotation
      JOINT RightFoot
      {
        OFFSET 0.253549 -42.0924 -1.46059
        CHANNELS 3 Zrotation Xrotation Yrotation
        JOINT RightToes
        {
          OFFSET 0.04 -4.41509 8.4991
          CHANNELS 3 Zrotation Xrotation Yrotation
          End Site
          {
            OFFSET -0.08 -0.137448 9.77979
          }
        }
      }
    }
  }
  JOINT Spine
  {
    OFFSET 0 11.8905 0
    CHANNELS 3 Zrotation Xrotation Yrotation
    JOINT Spine1
    {
      OFFSET 0 25.6574 0.127663
      CHANNELS 3 Zrotation Xrotation Yrotation
      JOINT HEad
      {
        OFFSET 0 8.73416 0.011341
        CHANNELS 3 Zrotation Xrotation Yrotation
        End Site
        {
          OFFSET -0.29 12.7742 2.51395
        }
      }
      JOINT LeftShoulder1
      {
        OFFSET 8.99 -0.362252 -0.22
        CHANNELS 3 Zrotation Xrotation Yrotation
        JOINT LeftArm
        {
          OFFSET 10.2827 -0.00338 0.322123
          CHANNELS 3 Zrotation Xrotation Yrotation
          JOINT LeftForeArm
          {
            OFFSET 32.7669 0.099144 -1.42434
            CHANNELS 3 Zrotation Xrotation Yrotation
            JOINT LeftHand
            {
              OFFSET 27.5643 0.085362 1.02216
              CHANNELS 3 Zrotation Xrotation Yrotation
              End Site
              {
                OFFSET 16.7443 -0.6 1.50291
              }
            }
          }
        }
      }
      JOINT RightShoulder
      {
        OFFSET -8.99 -0.362252 -0.22
        CHANNELS 3 Zrotation Xrotation Yrotation
        JOINT RightArm
        {
          OFFSET -10.2827 -0.00338 0.322123
          CHANNELS 3 Zrotation Xrotation Yrotation
          JOINT RightForeArm
          {
            OFFSET -32.8971 0.099144 -1.42434
            CHANNELS 3 Zrotation Xrotation Yrotation
            JOINT RightHand
            {
              OFFSET -27.4921 0.085362 1.02216
              CHANNELS 3 Zrotation Xrotation Yrotation
              End Site
              {
                OFFSET -16.6312 -0.6 1.50291
              }
            }
          }
        }
      }
    }
  }
  JOINT LeftUpLeg
  {
    OFFSET 8.9458 -8.66707 0.101652
    CHANNELS 3 Zrotation Xrotation Yrotation
    JOINT LeftLeg
    {
      OFFSET 0 -44.4227 1.3727
      CHANNELS 3 Zrotation Xrotation Yrotation
      JOINT LeftFoot
      {
        OFFSET -0.253549 -42.0924 -1.46059
        CHANNELS 3 Zrotation Xrotation Yrotation
        JOINT LeftToes
        {
          OFFSET -0.04 -4.41509 8.4991
          CHANNELS 3 Zrotation Xrotation Yrotation
          End Site
          {
            OFFSET 0.08 -0.047448 9.77979
          }
        }
      }
    }
  }
}
MOTION
Frames:	7
Frame Time:	0.0166667
-18.6921 97.9158 -61.6197 5.55234 12.1225 156.339 -24.8518 23.6419 16.0603 34.315 -2.46504 -49.9562 -27.3694 -4.37584 -2.24043 0.0462048 0.000533403 0.662642 -10.7974 27.0901 -11.9709 -0.00509486 0.00534002 0.0256957 -27.4705 23.3726 35.3305 -1.59028e-015 -6.36111e-015 6.36111e-015 162.583 -58.9855 -172.274 -97.8821 62.5488 -22.6769 15.5249 20.0226 -9.60009 10.7046 11.8114 16.2184 109.279 -11.3311 74.8437 27.2847 51.913 70.9139 20.2079 23.4115 6.61141 18.7079 -10.7615 -24.7226 -34.3485 18.8637 66.5934 -7.07721 -2.27862 -0.610877 -1.30767e-009 1.55985e-007 -4.87915e-009 
-19.6384 98.0584 -61.5131 5.87461 11.497 154.346 -25.5874 22.0078 14.8529 34.4625 -2.51656 -48.2319 -27.4174 -3.09696 -1.74444 0.0462048 0.000533403 0.662642 -10.6809 26.4131 -12.3615 -0.00509459 0.00534002 0.0228898 -30.6729 24.2438 38.4979 0 0 -0 160.531 -58.4341 -174.315 -97.9598 63.3762 -21.9708 15.6313 19.7517 -9.24456 10.9198 12.1129 16.5363 108.29 -10.6726 74.769 26.1624 51.4709 72.1424 19.3637 23.0509 6.94001 19.6478 -10.3101 -25.3531 -35.238 16.1962 68.6884 -6.71926 -1.38654 -0.166725 -1.30767e-009 1.55985e-007 -4.87914e-009 
-20.5658 98.029 -61.796 6.02654 10.9497 153.077 -26.3895 19.6146 13.2188 35.1289 -0.358 -46.9275 -26.4686 -2.2426 -1.49584 0.0462048 0.000533403 0.662642 -10.4984 25.4433 -12.1596 -0.00509421 0.00534003 0.0188001 -31.812 25.1733 39.391 8.82781e-032 -1.59028e-015 3.18055e-015 159.483 -58.4893 -175.13 -97.7567 64.1779 -21.5275 15.7861 19.2561 -9.55675 11.1338 12.624 16.2229 107.449 -10.2064 74.7354 25.1173 51.1255 73.3706 19.3711 23.1299 6.93516 20.3352 -10.0722 -25.702 -36.4393 14.1749 70.3136 -6.34732 -1.10283 -0.0430486 -1.30767e-009 1.55985e-007 -4.87914e-009 
-21.4674 97.9316 -62.3273 6.08573 10.4627 152.237 -26.9881 17.113 11.4824 35.7455 3.31566 -46.0972 -24.5719 -2.09367 -1.35217 0.0462048 0.000533403 0.662642 -10.3151 24.6328 -11.7126 -0.00509391 0.00534003 0.0155273 -30.9522 25.7093 38.3397 1.59028e-015 1.59028e-015 -3.18055e-015 159.198 -58.6598 -175.156 -97.2865 64.9484 -21.3384 15.8555 19.0221 -9.30297 11.4079 13.0003 15.7176 106.752 -9.8958 74.7463 24.16 50.86 74.582 18.8036 22.8029 7.20994 20.7982 -9.87886 -25.8279 -37.5777 12.597 71.5192 -6.06885 -1.13694 -0.0904069 -1.30767e-009 1.55985e-007 -4.87915e-009 
-22.3616 97.8432 -62.887 6.1555 10.0028 151.442 -27.5314 14.8773 9.90497 36.2377 6.85231 -45.0571 -22.6095 -1.9237 -1.23804 0.0462048 0.000533403 0.662642 -10.1289 23.9797 -11.0744 -0.00509363 0.00534003 0.012488 -29.8411 26.128 36.9696 1.59028e-015 -1.59028e-015 -0 159.548 -58.9194 -174.525 -96.6079 65.677 -21.3902 15.9538 18.683 -9.45965 11.7385 13.254 15.0682 106.183 -9.70617 74.7965 23.2644 50.6816 75.7835 18.7714 22.7759 7.21821 21.1119 -9.61899 -25.8034 -38.3621 11.2721 72.487 -5.96513 -1.18558 -0.139954 -1.30767e-009 1.55985e-007 -4.87914e-009 
-23.2289 97.7685 -63.4724 6.23531 9.58006 150.7 -28.0365 12.8445 8.49269 36.5873 10.1425 -43.857 -20.6313 -1.75796 -1.15405 0.0462048 0.000533403 0.662642 -9.93911 23.4767 -10.2913 -0.00509363 0.00534003 0.012488 -28.5329 26.4132 35.3533 3.18055e-015 3.18055e-015 3.18055e-015 160.415 -59.2271 -173.368 -95.799 66.348 -21.6292 16.0068 18.5279 -9.27995 12.1121 13.4003 14.312 105.732 -9.60208 74.8852 22.3911 50.5798 76.9984 18.4112 22.5471 7.39321 21.296 -9.2984 -25.6429 -38.8454 10.2109 73.2402 -6.03398 -1.24105 -0.188207 -1.30767e-009 1.55985e-007 -4.87914e-009 
-24.009 97.6777 -64.0732 6.33511 9.21233 150.034 -28.1708 10.6121 7.07026 38.0912 13.7638 -41.1297 -22.4887 -1.28067 -1.17874 0.0462048 0.000533403 0.662642 -9.73708 23.126 -9.42082 -0.00509363 0.00534003 0.012488 -27.0853 26.5592 33.5651 1.59028e-015 -1.59028e-015 3.18055e-015 161.666 -59.5349 -171.832 -94.9713 66.9471 -21.9812 16.0799 18.3397 -9.34962 12.5151 13.4584 13.4751 105.39 -9.54557 75.0027 21.4969 50.5586 78.2525 18.3816 22.5009 7.37075 21.4475 -8.96023 -25.3774 -39.2206 9.44292 73.8314 -6.28197 -1.34742 -0.25821 -1.30767e-009 1.55985e-007 -4.87914e-009 
